<?xml version="1.0" encoding="utf-8"?>
<!-- Generator: Adobe Illustrator 27.2.0, SVG Export Plug-In . SVG Version: 6.00 Build 0)  -->
<svg version="1.1" xmlns="http://www.w3.org/2000/svg" xmlns:xlink="http://www.w3.org/1999/xlink" x="0px" y="0px"
	 viewBox="0 0 512 512" style="enable-background:new 0 0 512 512;" xml:space="preserve">
<style type="text/css">
	.st0{fill:#D95A45;}
	.st1{fill:#1C2D43;}
	.st2{display:none;}
	.st3{display:inline;opacity:0.25;fill:#F800E4;}
	.st4{display:inline;opacity:0.25;fill:#0047F7;}
	.st5{display:inline;}
	.st6{opacity:0.15;fill:#0047F7;}
	.st7{opacity:0.15;fill:#F800E4;}
</style>
<g id="favicon-512">
	<g>
		<g>
			<circle class="st0" cx="256" cy="256" r="200"/>
		</g>
		<g>
			<path class="st1" d="M66.8,321c27,78.5,101.5,135,189.2,135s162.2-56.5,189.2-135H66.8z"/>
		</g>
		<g>
			<path class="st0" d="M397.4,114.6l-7.1,7.1c18.1,18.1,32.2,39.3,41.7,62.8c9.2,22.8,13.9,46.8,13.9,71.5s-4.7,48.7-13.9,71.5
				c-0.5,1.2-1,2.3-1.5,3.5h-63.3v10H426c-9.1,18.2-21,34.7-35.6,49.4c-18.1,18.1-39.3,32.2-62.8,41.7
				c-22.8,9.2-46.8,13.9-71.5,13.9s-48.7-4.7-71.5-13.9c-23.6-9.6-44.7-23.6-62.8-41.7v0l-7.1,7.1C153.6,436.5,204.8,456,256,456
				c51.2,0,102.4-19.5,141.4-58.6C475.5,319.3,475.5,192.7,397.4,114.6z"/>
		</g>
		<g>
			<g>
				<path class="st1" d="M256,56c-51.2,0-102.4,19.5-141.4,58.6C58.7,170.4,42.8,251,66.8,321h10.6c-1.2-3.3-2.3-6.6-3.3-10h181.7
					v-10H71.4c-3.6-14.7-5.4-29.7-5.4-45c0-24.7,4.7-48.7,13.9-71.5c9.6-23.6,23.6-44.7,41.7-62.8c18.1-18.1,39.3-32.2,62.8-41.7
					C207.3,70.7,231.3,66,256,66s48.7,4.7,71.5,13.9c23.6,9.6,44.7,23.6,62.8,41.7l7.1-7.1C358.4,75.5,307.2,56,256,56z"/>
			</g>
			<g>
				<path class="st1" d="M102.4,384.1c-13.6-16.2-24.6-34.7-32.5-54.7C77.6,348.9,88.4,367.3,102.4,384.1z"/>
			</g>
			<g>
				<path class="st1" d="M114.6,397.4L114.6,397.4c-0.3-0.4-0.7-0.7-1.1-1.1C113.9,396.7,114.2,397.1,114.6,397.4z"/>
			</g>
		</g>
	</g>
</g>
</svg>
