<?xml version="1.0" encoding="utf-8"?>
<!-- Generator: Adobe Illustrator 27.2.0, SVG Export Plug-In . SVG Version: 6.00 Build 0)  -->
<svg version="1.1" xmlns="http://www.w3.org/2000/svg" xmlns:xlink="http://www.w3.org/1999/xlink" x="0px" y="0px"
	 viewBox="0 0 512 512" style="enable-background:new 0 0 512 512;" xml:space="preserve">
<style type="text/css">
	.st0{fill:#D95A45;}
	.st1{fill:#1C2D43;}
	.st2{display:none;}
	.st3{display:inline;opacity:0.25;fill:#F800E4;}
	.st4{display:inline;opacity:0.25;fill:#0047F7;}
	.st5{display:inline;}
	.st6{opacity:0.15;fill:#0047F7;}
	.st7{opacity:0.15;fill:#F800E4;}
</style>
<g id="favicon-512">
	<g>
		<g>
			<circle class="st0" cx="256" cy="256" r="200"/>
		</g>
		<g>
			<path class="st1" d="M66.8,321c27,78.5,101.5,135,189.2,135s162.2-56.5,189.2-135H66.8z"/>
		</g>
		<g>
			<path class="st0" d="M397.4,114.6l-7.1,7.1c18.1,18.1,32.2,39.3,41.7,62.8c9.2,22.8,13.9,46.8,13.9,71.5s-4.7,48.7-13.9,71.5
				c-0.5,1.2-1,2.3-1.5,3.5h-63.3v10H426c-9.1,18.2-21,34.7-35.6,49.4c-18.1,18.1-39.3,32.2-62.8,41.7
				c-22.8,9.2-46.8,13.9-71.5,13.9s-48.7-4.7-71.5-13.9c-23.6-9.6-44.7-23.6-62.8-41.7v0l-7.1,7.1C153.6,436.5,204.8,456,256,456
				c51.2,0,102.4-19.5,141.4-58.6C475.5,319.3,475.5,192.7,397.4,114.6z"/>
		</g>
		<g>
			<g>
				<path class="st1" d="M256,56c-51.2,0-102.4,19.5-141.4,58.6C58.7,170.4,42.8,251,66.8,321h10.6c-1.2-3.3-2.3-6.6-3.3-10h181.7
					v-10H71.4c-3.6-14.7-5.4-29.7-5.4-45c0-24.7,4.7-48.7,13.9-71.5c9.6-23.6,23.6-44.7,41.7-62.8c18.1-18.1,39.3-32.2,62.8-41.7
					C207.3,70.7,231.3,66,256,66s48.7,4.7,71.5,13.9c23.6,9.6,44.7,23.6,62.8,41.7l7.1-7.1C358.4,75.5,307.2,56,256,56z"/>
			</g>
			<g>
				<path class="st1" d="M102.4,384.1c-13.6-16.2-24.6-34.7-32.5-54.7C77.6,348.9,88.4,367.3,102.4,384.1z"/>
			</g>
			<g>
				<path class="st1" d="M114.6,397.4L114.6,397.4c-0.3-0.4-0.7-0.7-1.1-1.1C113.9,396.7,114.2,397.1,114.6,397.4z"/>
			</g>
		</g>
	</g>
</g>
<g id="favicon-192">
	<g>
		<g>
			<circle class="st0" cx="647.5" cy="96" r="75"/>
		</g>
		<g>
			<path class="st1" d="M576.5,120.4c10.1,29.5,38.1,50.6,70.9,50.6s60.8-21.2,70.9-50.6H576.5z"/>
		</g>
		<g>
			<path class="st0" d="M700.5,43l-2.7,2.7c6.8,6.8,12.1,14.7,15.7,23.6c3.5,8.5,5.2,17.6,5.2,26.8s-1.8,18.3-5.2,26.8
				c-0.2,0.4-0.4,0.9-0.6,1.3h-23.7v3.8h22c-3.4,6.8-7.9,13-13.4,18.5c-6.8,6.8-14.7,12.1-23.6,15.7c-8.5,3.5-17.6,5.2-26.8,5.2
				s-18.3-1.8-26.8-5.2c-8.8-3.6-16.8-8.8-23.6-15.7v0l-2.7,2.7c14.6,14.6,33.8,22,53,22s38.4-7.3,53-22
				C729.8,119.7,729.8,72.3,700.5,43z"/>
		</g>
		<g>
			<g>
				<path class="st1" d="M647.5,21c-19.2,0-38.4,7.3-53,22c-20.9,20.9-26.9,51.2-17.9,77.4h4c-0.5-1.2-0.9-2.5-1.2-3.8h68.1v-3.8
					h-69.2c-1.3-5.5-2-11.1-2-16.9c0-9.3,1.8-18.3,5.2-26.8c3.6-8.8,8.8-16.8,15.7-23.6c6.8-6.8,14.7-12.1,23.6-15.7
					c8.5-3.5,17.6-5.2,26.8-5.2s18.3,1.8,26.8,5.2c8.8,3.6,16.8,8.8,23.6,15.7l2.7-2.7C685.9,28.3,666.7,21,647.5,21z"/>
			</g>
			<g>
				<path class="st1" d="M589.9,144c-5.1-6.1-9.2-13-12.2-20.5C580.6,130.8,584.6,137.8,589.9,144z"/>
			</g>
			<g>
				<path class="st1" d="M594.4,149L594.4,149c-0.1-0.1-0.3-0.3-0.4-0.4C594.2,148.8,594.3,148.9,594.4,149z"/>
			</g>
		</g>
	</g>
</g>
<g id="favicon-180">
	<g>
		<g>
			<circle class="st0" cx="873" cy="90" r="70"/>
		</g>
		<g>
			<path class="st1" d="M806.7,112.8c9.4,27.5,35.5,47.2,66.2,47.2c30.7,0,56.8-19.8,66.2-47.2H806.7z"/>
		</g>
		<g>
			<path class="st0" d="M922.5,40.5L920,43c6.3,6.3,11.3,13.7,14.6,22c3.2,8,4.9,16.4,4.9,25s-1.6,17.1-4.9,25
				c-0.2,0.4-0.3,0.8-0.5,1.2h-22.2v3.5h20.5c-3.2,6.4-7.4,12.2-12.5,17.3c-6.3,6.3-13.7,11.3-22,14.6c-8,3.2-16.4,4.9-25,4.9
				c-8.6,0-17.1-1.6-25-4.9c-8.2-3.3-15.6-8.3-22-14.6v0l-2.5,2.5C837.1,153.2,855,160,873,160s35.8-6.8,49.5-20.5
				C949.8,112.2,949.8,67.8,922.5,40.5z"/>
		</g>
		<g>
			<g>
				<path class="st1" d="M873,20c-17.9,0-35.8,6.8-49.5,20.5c-19.5,19.5-25.1,47.8-16.7,72.2h3.7c-0.4-1.2-0.8-2.3-1.2-3.5h63.6
					v-3.5h-64.6c-1.2-5.1-1.9-10.4-1.9-15.7c0-8.6,1.6-17.1,4.9-25c3.3-8.2,8.3-15.6,14.6-22c6.3-6.3,13.7-11.3,22-14.6
					c8-3.2,16.4-4.9,25-4.9c8.6,0,17.1,1.6,25,4.9c8.2,3.3,15.6,8.3,22,14.6l2.5-2.5C908.8,26.8,890.9,20,873,20z"/>
			</g>
			<g>
				<path class="st1" d="M819.2,134.8c-4.7-5.7-8.6-12.1-11.4-19.1C810.5,122.5,814.3,129,819.2,134.8z"/>
			</g>
			<g>
				<path class="st1" d="M823.5,139.5L823.5,139.5c-0.1-0.1-0.2-0.3-0.4-0.4C823.2,139.2,823.3,139.4,823.5,139.5z"/>
			</g>
		</g>
	</g>
</g>
<g id="favicon-48">
	<g>
		<g>
			<circle class="st0" cx="1026.4" cy="24" r="18.7"/>
		</g>
		<g>
			<path class="st1" d="M1008.7,30.1c2.5,7.4,9.5,12.7,17.7,12.7c8.2,0,15.2-5.3,17.7-12.7H1008.7z"/>
		</g>
		<g>
			<path class="st0" d="M1039.7,10.7l-0.7,0.7c1.7,1.7,3,3.7,3.9,5.9c0.9,2.1,1.3,4.4,1.3,6.7s-0.4,4.6-1.3,6.7
				c0,0.1-0.1,0.2-0.1,0.3h-5.9V32h5.5c-0.9,1.7-2,3.3-3.3,4.6c-1.7,1.7-3.7,3-5.9,3.9c-2.1,0.9-4.4,1.3-6.7,1.3s-4.6-0.4-6.7-1.3
				c-2.2-0.9-4.2-2.2-5.9-3.9v0l-0.7,0.7c3.7,3.7,8.5,5.5,13.3,5.5s9.6-1.8,13.3-5.5C1047,29.9,1047,18.1,1039.7,10.7z"/>
		</g>
		<g>
			<g>
				<path class="st1" d="M1026.4,5.3c-4.8,0-9.6,1.8-13.3,5.5c-5.2,5.2-6.7,12.8-4.5,19.4h1c-0.1-0.3-0.2-0.6-0.3-0.9h17v-0.9h-17.3
					c-0.3-1.4-0.5-2.8-0.5-4.2c0-2.3,0.4-4.6,1.3-6.7c0.9-2.2,2.2-4.2,3.9-5.9c1.7-1.7,3.7-3,5.9-3.9c2.1-0.9,4.4-1.3,6.7-1.3
					s4.6,0.4,6.7,1.3c2.2,0.9,4.2,2.2,5.9,3.9l0.7-0.7C1036,7.1,1031.2,5.3,1026.4,5.3z"/>
			</g>
			<g>
				<path class="st1" d="M1012,36c-1.3-1.5-2.3-3.3-3-5.1C1009.7,32.7,1010.7,34.4,1012,36z"/>
			</g>
			<g>
				<path class="st1" d="M1013.2,37.3L1013.2,37.3c0,0-0.1-0.1-0.1-0.1C1013.1,37.2,1013.1,37.2,1013.2,37.3z"/>
			</g>
		</g>
	</g>
</g>
<g id="favicon-32">
	<g>
		<g>
			<circle class="st0" cx="1105.9" cy="16" r="12.5"/>
		</g>
		<g>
			<path class="st1" d="M1094.1,20.1c1.7,4.9,6.3,8.4,11.8,8.4s10.1-3.5,11.8-8.4H1094.1z"/>
		</g>
		<g>
			<path class="st0" d="M1114.8,7.2l-0.4,0.4c1.1,1.1,2,2.5,2.6,3.9c0.6,1.4,0.9,2.9,0.9,4.5s-0.3,3-0.9,4.5c0,0.1-0.1,0.1-0.1,0.2
				h-4v0.6h3.7c-0.6,1.1-1.3,2.2-2.2,3.1c-1.1,1.1-2.5,2-3.9,2.6c-1.4,0.6-2.9,0.9-4.5,0.9c-1.5,0-3-0.3-4.5-0.9
				c-1.5-0.6-2.8-1.5-3.9-2.6v0l-0.4,0.4c2.4,2.4,5.6,3.7,8.8,3.7s6.4-1.2,8.8-3.7C1119.6,20,1119.6,12,1114.8,7.2z"/>
		</g>
		<g>
			<g>
				<path class="st1" d="M1105.9,3.5c-3.2,0-6.4,1.2-8.8,3.7c-3.5,3.5-4.5,8.5-3,12.9h0.7c-0.1-0.2-0.1-0.4-0.2-0.6h11.4v-0.6h-11.5
					c-0.2-0.9-0.3-1.9-0.3-2.8c0-1.5,0.3-3,0.9-4.5c0.6-1.5,1.5-2.8,2.6-3.9c1.1-1.1,2.5-2,3.9-2.6c1.4-0.6,2.9-0.9,4.5-0.9
					s3,0.3,4.5,0.9c1.5,0.6,2.8,1.5,3.9,2.6l0.4-0.4C1112.3,4.7,1109.1,3.5,1105.9,3.5z"/>
			</g>
			<g>
				<path class="st1" d="M1096.3,24c-0.8-1-1.5-2.2-2-3.4C1094.8,21.8,1095.4,23,1096.3,24z"/>
			</g>
			<g>
				<path class="st1" d="M1097.1,24.8L1097.1,24.8C1097.1,24.8,1097,24.8,1097.1,24.8C1097,24.8,1097.1,24.8,1097.1,24.8z"/>
			</g>
		</g>
	</g>
</g>
<g id="favicon-16">
	<g>
		<g>
			<circle class="st0" cx="1169.4" cy="8" r="6.2"/>
		</g>
		<g>
			<path class="st1" d="M1163.5,10c0.8,2.5,3.2,4.2,5.9,4.2s5.1-1.8,5.9-4.2H1163.5z"/>
		</g>
		<g>
			<path class="st0" d="M1173.8,3.6l-0.2,0.2c0.6,0.6,1,1.2,1.3,2c0.3,0.7,0.4,1.5,0.4,2.2s-0.1,1.5-0.4,2.2c0,0,0,0.1,0,0.1h-2v0.3
				h1.8c-0.3,0.6-0.7,1.1-1.1,1.5c-0.6,0.6-1.2,1-2,1.3c-0.7,0.3-1.5,0.4-2.2,0.4c-0.8,0-1.5-0.1-2.2-0.4c-0.7-0.3-1.4-0.7-2-1.3v0
				l-0.2,0.2c1.2,1.2,2.8,1.8,4.4,1.8s3.2-0.6,4.4-1.8C1176.3,10,1176.3,6,1173.8,3.6z"/>
		</g>
		<g>
			<g>
				<path class="st1" d="M1169.4,1.8c-1.6,0-3.2,0.6-4.4,1.8c-1.7,1.7-2.2,4.3-1.5,6.5h0.3c0-0.1-0.1-0.2-0.1-0.3h5.7V9.4h-5.8
					c-0.1-0.5-0.2-0.9-0.2-1.4c0-0.8,0.1-1.5,0.4-2.2c0.3-0.7,0.7-1.4,1.3-2c0.6-0.6,1.2-1,2-1.3c0.7-0.3,1.5-0.4,2.2-0.4
					s1.5,0.1,2.2,0.4c0.7,0.3,1.4,0.7,2,1.3l0.2-0.2C1172.6,2.4,1171,1.8,1169.4,1.8z"/>
			</g>
			<g>
				<path class="st1" d="M1164.6,12c-0.4-0.5-0.8-1.1-1-1.7C1163.8,10.9,1164.2,11.5,1164.6,12z"/>
			</g>
			<g>
				<path class="st1" d="M1165,12.4L1165,12.4C1165,12.4,1165,12.4,1165,12.4C1165,12.4,1165,12.4,1165,12.4z"/>
			</g>
		</g>
	</g>
</g>
<g id="grid" class="st2">
	<rect class="st3" width="512" height="64"/>
	<rect x="-224" y="224" transform="matrix(-1.836970e-16 1 -1 -1.836970e-16 288 224)" class="st3" width="512" height="64"/>
	
		<rect x="224" y="224" transform="matrix(-1.836970e-16 1 -1 -1.836970e-16 735.9835 -223.9835)" class="st4" width="512" height="64"/>
	<rect y="448" transform="matrix(-1 -1.224647e-16 1.224647e-16 -1 512 960)" class="st4" width="512" height="64"/>
	<g id="internal" class="st5">
		<g id="horizontal-internal">
			<rect y="64" transform="matrix(-1 1.653892e-15 -1.653892e-15 -1 512 192)" class="st6" width="512" height="64"/>
			<rect y="192" transform="matrix(-1 1.653892e-15 -1.653892e-15 -1 512 448)" class="st6" width="512" height="64"/>
			<rect y="320" transform="matrix(-1 -1.224647e-16 1.224647e-16 -1 512 704)" class="st6" width="512" height="64"/>
			<rect y="128" class="st7" width="512" height="64"/>
			<rect y="256" class="st7" width="512" height="64"/>
			<rect y="384" class="st7" width="512" height="64"/>
		</g>
		<g id="vertical-internal">
			<rect x="-96" y="224" transform="matrix(-1.836970e-16 1 -1 -1.836970e-16 416 96)" class="st7" width="512" height="64"/>
			<rect x="160" y="224" transform="matrix(-1.836970e-16 1 -1 -1.836970e-16 672 -160)" class="st7" width="512" height="64"/>
			<rect x="32" y="224" transform="matrix(-1.836970e-16 1 -1 -1.836970e-16 544 -32)" class="st7" width="512" height="64"/>
			<rect x="96" y="224" transform="matrix(-1.836970e-16 1 -1 -1.836970e-16 608 -96)" class="st6" width="512" height="64"/>
			<rect x="-32" y="224" transform="matrix(-1.836970e-16 1 -1 -1.836970e-16 480 32)" class="st6" width="512" height="64"/>
			<rect x="-160" y="224" transform="matrix(-1.836970e-16 1 -1 -1.836970e-16 352 160)" class="st6" width="512" height="64"/>
		</g>
	</g>
</g>
</svg>
